<svg xmlns="http://www.w3.org/2000/svg" xmlns:xlink="http://www.w3.org/1999/xlink" width="500" zoomAndPan="magnify" viewBox="0 0 375 374.999991" height="500" preserveAspectRatio="xMidYMid meet" version="1.0"><defs><g/><clipPath id="6c132774f0"><path d="M 75.109375 153.3125 L 264.109375 153.3125 L 264.109375 221.5625 L 75.109375 221.5625 Z M 75.109375 153.3125 " clip-rule="nonzero"/></clipPath></defs><g clip-path="url(#6c132774f0)"><path fill="#ffffff" d="M 172.058594 218.597656 C 169.3125 215.703125 166.628906 213.707031 163.988281 212.527344 C 184.90625 195.089844 194.640625 173 192.855469 164.855469 C 189.929688 183.90625 171.511719 205.828125 163.976562 212.519531 C 161.683594 211.5 159.425781 211.09375 157.175781 211.265625 C 163.492188 202.554688 169.507812 167.785156 165.863281 159.464844 C 168.78125 160.917969 171.828125 163.292969 176.972656 162.472656 C 170.601562 160.605469 168.207031 158.6875 162.832031 155.28125 C 168.25 173.882812 160.941406 201.5 156.816406 211.300781 C 155.199219 211.46875 153.589844 211.933594 151.980469 212.675781 C 152.136719 199.796875 137.40625 164.003906 128.203125 158.25 C 133.644531 158.3125 137.644531 157.203125 142.5625 155.703125 C 145.9375 161.515625 148.230469 168.4375 150.035156 175.296875 C 149.378906 167.800781 146.496094 160.324219 143.742188 153.351562 C 136.464844 155.472656 129.972656 156.058594 122.699219 156.09375 C 139.113281 170.359375 149.136719 200.488281 151.5 212.910156 C 150.457031 213.429688 149.414062 214.066406 148.367188 214.816406 C 143.351562 204.101562 111.597656 179.289062 100.40625 178.980469 C 105.128906 176.285156 107.21875 173.695312 110.6875 169.914062 C 116.558594 173.214844 125.410156 181.152344 130.457031 186.148438 C 126.074219 180.023438 116.433594 171.515625 110.507812 166.902344 C 105.320312 172.410156 100.03125 176.203125 93.777344 179.914062 C 115.726562 183.996094 140.386719 205.835938 148.152344 214.972656 C 147.535156 215.425781 146.917969 215.914062 146.296875 216.441406 C 125.617188 210.164062 104.507812 208.546875 79.628906 217.421875 C 82.316406 213.4375 83.300781 209.84375 83.367188 205.859375 C 95.03125 203.476562 108.601562 201.582031 124.46875 202.335938 C 112.695312 199.886719 96.257812 199.492188 81.59375 203.3125 C 80.367188 210.628906 77.910156 216.3125 75.105469 221.535156 C 102.421875 212.007812 125.734375 211.925781 147.28125 220.164062 C 156.195312 213.242188 164.585938 213.175781 170.878906 220.359375 C 196.183594 218.75 238.796875 217.707031 264.097656 219.773438 C 242.0625 217.128906 199.339844 217.0625 172.058594 218.597656 Z M 172.058594 218.597656 " fill-opacity="1" fill-rule="evenodd"/></g><g fill="#ffffff" fill-opacity="1"><g transform="translate(180.145334, 212.066676)"><g><path d="M 4.65625 -13.578125 C 6.1875 -13.578125 7.335938 -13.222656 8.109375 -12.515625 C 8.878906 -11.816406 9.265625 -10.765625 9.265625 -9.359375 C 9.265625 -7.921875 8.882812 -6.847656 8.125 -6.140625 C 7.375 -5.429688 6.335938 -5.078125 5.015625 -5.078125 L 3.625 -5.078125 L 3.625 0 L 0.96875 0 L 0.96875 -13.578125 Z M 3.625 -7.265625 L 4.1875 -7.265625 C 5.019531 -7.265625 5.625 -7.40625 6 -7.6875 C 6.375 -7.976562 6.5625 -8.539062 6.5625 -9.375 C 6.5625 -10.125 6.378906 -10.644531 6.015625 -10.9375 C 5.648438 -11.226562 5.054688 -11.375 4.234375 -11.375 L 3.625 -11.375 Z M 3.625 -7.265625 "/></g></g></g><g fill="#ffffff" fill-opacity="1"><g transform="translate(189.649309, 212.066676)"><g><path d="M 7.1875 -13.9375 L 12.328125 0 L 9.5 0 L 8.453125 -2.859375 L 3.75 -2.859375 L 2.625 0 L -0.15625 0 L 5.125 -13.9375 Z M 4.5 -5.015625 L 7.71875 -5.015625 L 6.03125 -9.953125 L 6 -9.953125 Z M 8.625 -16.921875 L 5.90625 -14.21875 L 4.625 -15.015625 L 6.78125 -18.03125 Z M 8.625 -16.921875 "/></g></g></g><g fill="#ffffff" fill-opacity="1"><g transform="translate(201.817273, 212.066676)"><g><path d="M 9.96875 -9.4375 C 9.695312 -10.039062 9.285156 -10.550781 8.734375 -10.96875 C 8.191406 -11.382812 7.570312 -11.59375 6.875 -11.59375 C 6.101562 -11.59375 5.421875 -11.351562 4.828125 -10.875 C 4.242188 -10.40625 3.800781 -9.800781 3.5 -9.0625 C 3.207031 -8.332031 3.0625 -7.554688 3.0625 -6.734375 C 3.0625 -5.410156 3.421875 -4.285156 4.140625 -3.359375 C 4.859375 -2.441406 5.773438 -1.984375 6.890625 -1.984375 C 7.710938 -1.984375 8.421875 -2.28125 9.015625 -2.875 C 9.617188 -3.46875 9.941406 -4.195312 9.984375 -5.0625 L 7.109375 -5.0625 L 7.109375 -7.21875 L 12.953125 -7.21875 L 12.953125 -6.84375 C 12.953125 -5.4375 12.707031 -4.1875 12.21875 -3.09375 C 11.726562 -2.007812 11.015625 -1.160156 10.078125 -0.546875 C 9.148438 0.0546875 8.050781 0.359375 6.78125 0.359375 C 5.53125 0.359375 4.410156 0.0390625 3.421875 -0.59375 C 2.429688 -1.238281 1.664062 -2.101562 1.125 -3.1875 C 0.59375 -4.269531 0.328125 -5.453125 0.328125 -6.734375 C 0.328125 -8.078125 0.601562 -9.289062 1.15625 -10.375 C 1.71875 -11.457031 2.503906 -12.320312 3.515625 -12.96875 C 4.535156 -13.613281 5.679688 -13.9375 6.953125 -13.9375 C 8.109375 -13.9375 9.148438 -13.660156 10.078125 -13.109375 C 11.015625 -12.554688 11.757812 -11.75 12.3125 -10.6875 Z M 9.96875 -9.4375 "/></g></g></g><g fill="#ffffff" fill-opacity="1"><g transform="translate(215.119232, 212.066676)"><g><path d="M 3.625 -13.578125 L 3.625 0 L 0.96875 0 L 0.96875 -13.578125 Z M 3.625 -13.578125 "/></g></g></g><g fill="#ffffff" fill-opacity="1"><g transform="translate(219.691215, 212.066676)"><g><path d="M 2.875 -13.9375 L 10.03125 -4.453125 L 10.0625 -4.453125 L 10.0625 -13.578125 L 12.703125 -13.578125 L 12.703125 0.265625 L 10.796875 0.265625 L 3.65625 -9.21875 L 3.625 -9.21875 L 3.625 0 L 0.96875 0 L 0.96875 -13.9375 Z M 2.875 -13.9375 "/></g></g></g><g fill="#ffffff" fill-opacity="1"><g transform="translate(233.353171, 212.066676)"><g><path d="M 7.1875 -13.9375 L 12.328125 0 L 9.5 0 L 8.453125 -2.859375 L 3.75 -2.859375 L 2.625 0 L -0.15625 0 L 5.125 -13.9375 Z M 4.5 -5.015625 L 7.71875 -5.015625 L 6.03125 -9.953125 L 6 -9.953125 Z M 4.5 -5.015625 "/></g></g></g><g fill="#ffffff" fill-opacity="1"><g transform="translate(245.521135, 212.066676)"><g><path d="M 7.359375 -10.578125 C 7.109375 -10.929688 6.816406 -11.207031 6.484375 -11.40625 C 6.160156 -11.601562 5.773438 -11.703125 5.328125 -11.703125 C 4.867188 -11.703125 4.476562 -11.550781 4.15625 -11.25 C 3.832031 -10.945312 3.671875 -10.585938 3.671875 -10.171875 C 3.671875 -9.785156 3.828125 -9.457031 4.140625 -9.1875 C 4.460938 -8.914062 4.9375 -8.660156 5.5625 -8.421875 C 6.644531 -7.984375 7.410156 -7.554688 7.859375 -7.140625 C 8.304688 -6.734375 8.613281 -6.296875 8.78125 -5.828125 C 8.957031 -5.359375 9.046875 -4.84375 9.046875 -4.28125 C 9.046875 -2.90625 8.640625 -1.785156 7.828125 -0.921875 C 7.015625 -0.0664062 5.9375 0.359375 4.59375 0.359375 C 3.65625 0.359375 2.835938 0.117188 2.140625 -0.359375 C 1.453125 -0.847656 0.875 -1.488281 0.40625 -2.28125 L 2.125 -3.953125 C 2.332031 -3.378906 2.660156 -2.90625 3.109375 -2.53125 C 3.566406 -2.164062 4.054688 -1.984375 4.578125 -1.984375 C 5.078125 -1.984375 5.488281 -2.164062 5.8125 -2.53125 C 6.144531 -2.894531 6.3125 -3.363281 6.3125 -3.9375 C 6.3125 -4.445312 6.15625 -4.847656 5.84375 -5.140625 C 5.53125 -5.441406 5.070312 -5.710938 4.46875 -5.953125 C 3.113281 -6.472656 2.1875 -7.019531 1.6875 -7.59375 C 1.1875 -8.164062 0.9375 -8.921875 0.9375 -9.859375 C 0.9375 -10.578125 1.101562 -11.25 1.4375 -11.875 C 1.769531 -12.5 2.242188 -13 2.859375 -13.375 C 3.472656 -13.75 4.148438 -13.9375 4.890625 -13.9375 C 5.554688 -13.9375 6.25 -13.785156 6.96875 -13.484375 C 7.695312 -13.179688 8.242188 -12.828125 8.609375 -12.421875 Z M 7.359375 -10.578125 "/></g></g></g><g fill="#ffffff" fill-opacity="1"><g transform="translate(254.989106, 212.066676)"><g/></g></g><g fill="#ffffff" fill-opacity="1"><g transform="translate(260.19611, 212.066676)"><g><path d="M 1.75 -13.578125 L 5.609375 -3.21875 L 9.484375 -13.578125 L 11.125 -13.578125 L 5.609375 0.8125 L 0.109375 -13.578125 Z M 1.890625 0 Z M 1.890625 0 "/></g></g></g><g fill="#ffffff" fill-opacity="1"><g transform="translate(271.428074, 212.066676)"><g><path d="M 8.40625 -13.578125 L 8.40625 -12.171875 L 2.875 -12.171875 L 2.875 -8.140625 L 8.25 -8.140625 L 8.25 -6.734375 L 2.875 -6.734375 L 2.875 -1.40625 L 8.40625 -1.40625 L 8.40625 0 L 1.375 0 L 1.375 -13.578125 Z M 8.40625 -13.578125 "/></g></g></g><g fill="#ffffff" fill-opacity="1"><g transform="translate(281.040046, 212.066676)"><g><path d="M 3.4375 -13.578125 C 6.675781 -13.578125 8.296875 -12.328125 8.296875 -9.828125 C 8.296875 -8.785156 7.992188 -7.925781 7.390625 -7.25 C 6.785156 -6.570312 5.953125 -6.179688 4.890625 -6.078125 L 9.21875 0 L 7.359375 0 L 3.265625 -5.953125 L 2.875 -5.953125 L 2.875 0 L 1.375 0 L 1.375 -13.578125 Z M 2.875 -7.296875 L 3.546875 -7.296875 C 4.609375 -7.296875 5.410156 -7.492188 5.953125 -7.890625 C 6.503906 -8.285156 6.78125 -8.894531 6.78125 -9.71875 C 6.78125 -10.613281 6.515625 -11.242188 5.984375 -11.609375 C 5.453125 -11.984375 4.679688 -12.171875 3.671875 -12.171875 L 2.875 -12.171875 Z M 2.875 -7.296875 "/></g></g></g><g fill="#ffffff" fill-opacity="1"><g transform="translate(290.796019, 212.066676)"><g><path d="M 4.234375 -13.578125 C 5.484375 -13.578125 6.554688 -13.382812 7.453125 -13 C 8.347656 -12.625 9.097656 -12.113281 9.703125 -11.46875 C 10.304688 -10.832031 10.75 -10.109375 11.03125 -9.296875 C 11.320312 -8.492188 11.46875 -7.640625 11.46875 -6.734375 C 11.46875 -5.566406 11.195312 -4.484375 10.65625 -3.484375 C 10.125 -2.484375 9.335938 -1.648438 8.296875 -0.984375 C 7.253906 -0.328125 5.894531 0 4.21875 0 L 1.375 0 L 1.375 -13.578125 Z M 4.3125 -1.40625 C 5.144531 -1.40625 5.894531 -1.523438 6.5625 -1.765625 C 7.238281 -2.015625 7.832031 -2.382812 8.34375 -2.875 C 8.863281 -3.375 9.257812 -3.960938 9.53125 -4.640625 C 9.8125 -5.328125 9.953125 -6.039062 9.953125 -6.78125 C 9.953125 -7.769531 9.734375 -8.660156 9.296875 -9.453125 C 8.859375 -10.253906 8.234375 -10.90625 7.421875 -11.40625 C 6.609375 -11.914062 5.519531 -12.171875 4.15625 -12.171875 L 2.875 -12.171875 L 2.875 -1.40625 Z M 4.3125 -1.40625 "/></g></g></g><g fill="#ffffff" fill-opacity="1"><g transform="translate(302.999986, 212.066676)"><g><path d="M 8.40625 -13.578125 L 8.40625 -12.171875 L 2.875 -12.171875 L 2.875 -8.140625 L 8.25 -8.140625 L 8.25 -6.734375 L 2.875 -6.734375 L 2.875 -1.40625 L 8.40625 -1.40625 L 8.40625 0 L 1.375 0 L 1.375 -13.578125 Z M 8.40625 -13.578125 "/></g></g></g><g fill="#ffffff" fill-opacity="1"><g transform="translate(312.611958, 212.066676)"><g><path d="M 7.53125 -10.921875 C 7.226562 -11.453125 6.890625 -11.832031 6.515625 -12.0625 C 6.148438 -12.289062 5.710938 -12.40625 5.203125 -12.40625 C 4.546875 -12.40625 4.003906 -12.195312 3.578125 -11.78125 C 3.148438 -11.375 2.9375 -10.878906 2.9375 -10.296875 C 2.9375 -9.835938 3.113281 -9.445312 3.46875 -9.125 C 3.820312 -8.800781 4.25 -8.523438 4.75 -8.296875 C 5.257812 -8.066406 5.71875 -7.867188 6.125 -7.703125 C 6.53125 -7.535156 7.003906 -7.28125 7.546875 -6.9375 C 8.085938 -6.601562 8.5 -6.1875 8.78125 -5.6875 C 9.070312 -5.1875 9.21875 -4.609375 9.21875 -3.953125 C 9.21875 -3.210938 9.03125 -2.519531 8.65625 -1.875 C 8.28125 -1.226562 7.765625 -0.710938 7.109375 -0.328125 C 6.453125 0.046875 5.734375 0.234375 4.953125 0.234375 C 3.878906 0.234375 2.960938 -0.078125 2.203125 -0.703125 C 1.441406 -1.335938 0.945312 -2.195312 0.71875 -3.28125 L 2.203125 -3.6875 C 2.316406 -2.945312 2.625 -2.34375 3.125 -1.875 C 3.625 -1.40625 4.21875 -1.171875 4.90625 -1.171875 C 5.664062 -1.171875 6.320312 -1.425781 6.875 -1.9375 C 7.425781 -2.457031 7.703125 -3.082031 7.703125 -3.8125 C 7.703125 -4.457031 7.488281 -4.988281 7.0625 -5.40625 C 6.644531 -5.820312 5.878906 -6.25 4.765625 -6.6875 C 3.648438 -7.132812 2.8125 -7.632812 2.25 -8.1875 C 1.695312 -8.738281 1.421875 -9.457031 1.421875 -10.34375 C 1.421875 -11.351562 1.789062 -12.179688 2.53125 -12.828125 C 3.28125 -13.484375 4.175781 -13.8125 5.21875 -13.8125 C 5.988281 -13.8125 6.671875 -13.628906 7.265625 -13.265625 C 7.859375 -12.898438 8.347656 -12.378906 8.734375 -11.703125 Z M 7.53125 -10.921875 "/></g></g></g></svg>